<?xml version="1.0" standalone="no"?>
<!DOCTYPE svg PUBLIC "-//W3C//DTD SVG 20010904//EN"
 "http://www.w3.org/TR/2001/REC-SVG-20010904/DTD/svg10.dtd">
<svg version="1.0" xmlns="http://www.w3.org/2000/svg"
 width="125.000000pt" height="125.000000pt" viewBox="0 0 125.000000 125.000000"
 preserveAspectRatio="xMidYMid meet">
<metadata>
Created by potrace 1.11, written by Peter Selinger 2001-2013
</metadata>
<g transform="translate(0.000000,125.000000) scale(0.100000,-0.100000)"
fill="#000000" stroke="none">
<path d="M399 909 c-52 -55 -94 -109 -94 -118 0 -10 43 -63 96 -119 l95 -101
23 22 22 22 -93 88 -93 87 93 88 92 88 -23 22 -23 22 -95 -101z"/>
<path d="M719 810 c-11 -31 -17 -34 -56 -30 -32 2 -29 -18 4 -26 31 -8 54 4
68 34 10 23 30 29 40 13 3 -5 1 -12 -5 -16 -46 -28 59 -136 132 -135 l23 1
-25 14 -25 14 25 1 c21 1 18 5 -22 25 -26 14 -49 29 -52 34 -9 13 51 61 77 62
18 0 17 3 -11 17 -27 13 -38 14 -64 4 -26 -10 -35 -9 -48 3 -26 24 -50 18 -61
-15z m109 -32 c-6 -18 -28 -21 -28 -4 0 9 7 16 16 16 9 0 14 -5 12 -12z"/>
<path d="M230 563 c-35 -13 -50 -37 -50 -80 0 -32 4 -43 15 -43 8 0 15 7 15
15 0 10 10 15 29 15 16 0 31 -6 35 -15 3 -8 10 -15 16 -15 7 0 10 23 8 63 -3
58 -5 62 -28 64 -14 1 -32 -1 -40 -4z m40 -43 c0 -16 -7 -20 -30 -20 -32 0
-37 9 -18 28 19 19 48 15 48 -8z"/>
<path d="M336 557 c-11 -8 -17 -23 -14 -38 3 -21 9 -24 46 -27 56 -4 54 -22
-3 -22 -33 0 -45 -4 -45 -15 0 -19 90 -21 108 -3 28 28 -1 68 -49 68 -16 0
-29 5 -29 10 0 6 18 10 40 10 48 0 53 15 9 24 -42 8 -42 8 -63 -7z"/>
<path d="M484 560 c-29 -11 -37 -26 -36 -64 1 -36 24 -56 68 -56 35 0 49 12
59 51 11 46 -44 88 -91 69z m61 -55 c0 -26 -4 -30 -29 -33 -36 -4 -50 10 -42
43 6 22 11 26 39 23 28 -3 32 -7 32 -33z"/>
<path d="M604 546 c-3 -7 -4 -35 -2 -62 l3 -49 42 1 c23 0 49 6 57 14 24 19
20 76 -6 94 -28 20 -87 21 -94 2z m91 -27 c4 -5 4 -21 1 -35 -5 -20 -13 -24
-41 -24 -33 0 -35 2 -35 35 0 33 2 35 34 35 19 0 38 -5 41 -11z"/>
<path d="M747 553 c-4 -3 -7 -28 -7 -54 0 -55 15 -69 74 -69 25 0 36 4 36 15
0 11 -12 15 -45 15 -45 0 -45 0 -45 35 0 35 0 35 45 35 33 0 45 4 45 15 0 11
-12 15 -48 15 -27 0 -52 -3 -55 -7z"/>
<path d="M860 553 c0 -12 50 -112 60 -118 10 -6 75 113 66 122 -9 9 -26 -8
-45 -45 l-19 -36 -21 42 c-18 36 -41 56 -41 35z"/>
<path d="M770 495 c0 -10 11 -15 35 -15 24 0 35 5 35 15 0 10 -11 15 -35 15
-24 0 -35 -5 -35 -15z"/>
</g>
</svg>
